<svg xmlns:xlink="http://www.w3.org/1999/xlink" xmlns="http://www.w3.org/2000/svg" viewBox="0 0 356.12052 149.9302782681204" height="149.9302782681204" width="356.12052"><g><svg viewBox="0 0 356.12052 149.9302782681204" height="149.9302782681204" width="356.12052"><g><svg viewBox="0 0 356.12052 149.9302782681204" height="149.9302782681204" width="356.12052"><g><path d="M0 149.93v-149.93h356.121v149.93z" fill="#F6F6F6" stroke="#000000" stroke-width="0px" rx="0%" data-fill-palette-color="tertiary" stroke-opacity="0"></path><path d="M3.283 146.647v-143.364h349.554v143.364z" fill="#90ADBB" stroke="#000000" stroke-width="0px" rx="0%" data-fill-palette-color="quaternary" stroke-opacity="0"></path><path d="M9.85 140.08v-130.23h336.421v130.23z" fill="#F6F6F6" stroke="#000000" stroke-width="0px" data-fill-palette-color="tertiary" stroke-opacity="0"></path></g><g transform="matrix(1,0,0,1,19.69974,19.69974)" id="textblocktransform"><svg viewBox="0 0 316.72104 110.53079826812039" height="110.53079826812039" width="316.72104" id="textblock"><g><svg viewBox="0 0 316.72104 64.25477025223758" height="64.25477025223758" width="316.72104"><g transform="matrix(1,0,0,1,0,0)"><svg width="316.72104" viewBox="3.8499999046325684 -37.099998474121094 184.33999633789062 37.39999771118164" height="64.25477025223758" data-palette-color="#90adbb"><path d="M18.4 0L3.85 0 3.85-36.8 18.4-36.8Q21.75-36.8 24.05-35.58 26.35-34.35 27.78-32 29.2-29.65 29.85-26.23 30.5-22.8 30.5-18.4L30.5-18.4Q30.5-12.6 29.15-8.5 27.8-4.4 25.1-2.2 22.4 0 18.4 0L18.4 0ZM7.85-33.2L7.85-3.55 18.1-3.55Q21.05-3.55 22.9-5.38 24.75-7.2 25.65-10.53 26.55-13.85 26.55-18.4L26.55-18.4Q26.55-22.5 26.05-25.33 25.55-28.15 24.53-29.9 23.5-31.65 21.9-32.43 20.3-33.2 18.1-33.2L18.1-33.2 7.85-33.2ZM45.1 0.2L45.1 0.2Q43.9 0.2 42.55-0.03 41.2-0.25 40-0.95 38.8-1.65 38.05-3.08 37.3-4.5 37.3-6.95L37.3-6.95 37.3-29.4Q37.3-31.55 37.92-32.98 38.55-34.4 39.6-35.23 40.65-36.05 41.95-36.43 43.25-36.8 44.55-36.8L44.55-36.8Q47.65-36.75 50.3-36.68 52.95-36.6 55.32-36.52 57.7-36.45 59.95-36.35L59.95-36.35 59.95-33.15 45.55-33.15Q43.6-33.15 42.45-32.1 41.3-31.05 41.3-28.75L41.3-28.75 41.3-20.05 57.75-19.8 57.75-16.75 41.3-16.5 41.3-7.85Q41.3-6 41.92-5.05 42.55-4.1 43.6-3.8 44.65-3.5 45.75-3.5L45.75-3.5 59.95-3.5 59.95-0.3Q57.65-0.15 55.12-0.05 52.6 0.05 50.07 0.1 47.55 0.15 45.1 0.2ZM77.1 0.3L77.1 0.3Q76 0.3 74.47 0.23 72.95 0.15 71.35 0.03 69.75-0.1 68.32-0.25 66.9-0.4 65.95-0.6L65.95-0.6 65.95-3.65Q67.2-3.55 69-3.45 70.8-3.35 72.87-3.3 74.95-3.25 76.95-3.25L76.95-3.25Q79.2-3.25 81-3.7 82.8-4.15 83.87-5.35 84.95-6.55 84.95-8.8L84.95-8.8 84.95-11.3Q84.95-13.85 83.65-15.18 82.35-16.5 79.45-16.5L79.45-16.5 75.5-16.5Q70.95-16.5 68.37-18.5 65.8-20.5 65.8-25.4L65.8-25.4 65.8-27.5Q65.8-32.7 68.6-34.9 71.4-37.1 76.5-37.1L76.5-37.1Q78.1-37.1 80.1-36.93 82.1-36.75 83.97-36.52 85.85-36.3 87.1-36.05L87.1-36.05 87.1-33Q84.9-33.2 82.12-33.35 79.35-33.5 76.9-33.5L76.9-33.5Q74.65-33.5 73-32.98 71.35-32.45 70.47-31.13 69.6-29.8 69.6-27.35L69.6-27.35 69.6-25.65Q69.6-22.6 71.2-21.45 72.8-20.3 75.65-20.3L75.65-20.3 79.9-20.3Q82.95-20.3 84.9-19.2 86.85-18.1 87.8-16.18 88.75-14.25 88.75-11.75L88.75-11.75 88.75-8.9Q88.75-5.2 87.17-3.2 85.6-1.2 82.97-0.45 80.35 0.3 77.1 0.3ZM99.54 0L95.54 0 95.54-36.8 99.54-36.8 99.54-19.75 117.94-19.75 117.94-36.8 121.89-36.8 121.89 0 117.94 0 117.94-16.15 99.54-16.15 99.54 0ZM142.94 0.3L142.94 0.3Q139.39 0.3 136.72-0.38 134.04-1.05 132.27-2.95 130.49-4.85 129.62-8.55 128.74-12.25 128.74-18.25L128.74-18.25Q128.74-24.25 129.64-27.98 130.54-31.7 132.34-33.68 134.14-35.65 136.79-36.38 139.44-37.1 142.94-37.1L142.94-37.1Q146.54-37.1 149.22-36.38 151.89-35.65 153.67-33.68 155.44-31.7 156.29-27.98 157.14-24.25 157.14-18.25L157.14-18.25Q157.14-12.25 156.27-8.55 155.39-4.85 153.62-2.95 151.84-1.05 149.19-0.38 146.54 0.3 142.94 0.3ZM142.94-3.25L142.94-3.25Q145.74-3.25 147.69-3.8 149.64-4.35 150.87-5.93 152.09-7.5 152.64-10.45 153.19-13.4 153.19-18.25L153.19-18.25Q153.19-23.3 152.62-26.35 152.04-29.4 150.82-30.95 149.59-32.5 147.67-33 145.74-33.5 142.94-33.5L142.94-33.5Q140.34-33.5 138.42-33 136.49-32.5 135.22-30.95 133.94-29.4 133.32-26.35 132.69-23.3 132.69-18.25L132.69-18.25Q132.69-13.4 133.22-10.45 133.74-7.5 134.94-5.93 136.14-4.35 138.12-3.8 140.09-3.25 142.94-3.25ZM167.94 0L163.94 0 163.94-36.8 178.59-36.8Q180.19-36.8 181.86-36.38 183.54-35.95 184.99-34.73 186.44-33.5 187.31-31.18 188.19-28.85 188.19-25.05L188.19-25.05Q188.19-21.15 187.26-18.78 186.34-16.4 184.86-15.13 183.39-13.85 181.69-13.4 179.99-12.95 178.39-12.95L178.39-12.95Q177.64-12.95 176.19-13 174.74-13.05 173.11-13.13 171.49-13.2 170.09-13.3 168.69-13.4 167.94-13.45L167.94-13.45 167.94 0ZM167.94-33.2L167.94-16.5 177.89-16.5Q179.64-16.5 181.09-17.25 182.54-18 183.36-19.85 184.19-21.7 184.19-25L184.19-25Q184.19-28.25 183.36-30.03 182.54-31.8 181.19-32.5 179.84-33.2 178.24-33.2L178.24-33.2 167.94-33.2Z" opacity="1" transform="matrix(1,0,0,1,0,0)" fill="#90ADBB" class="wordmark-text-0" data-fill-palette-color="quaternary" id="text-0"></path></svg></g></svg></g><g transform="matrix(1,0,0,1,0,70.82135025223758)"><svg viewBox="0 0 316.72104 39.70944801588281" height="39.70944801588281" width="316.72104"><g transform="matrix(1,0,0,1,0,0)"><svg width="316.72104" viewBox="4.050000190734863 -36.380001068115234 293.32000732421875 36.78000259399414" height="39.70944801588281" data-palette-color="#90adbb"><path d="M6.43 0L4.05 0 4.05-24.88 5.3-24.88Q5.73-24.88 5.91-24.7 6.1-24.53 6.13-24.1L6.13-24.1 6.33-18.85Q7.53-21.88 9.53-23.59 11.53-25.3 14.45-25.3L14.45-25.3Q15.58-25.3 16.53-25.06 17.48-24.83 18.32-24.38L18.32-24.38 18-22.73Q17.93-22.33 17.5-22.33L17.5-22.33Q17.35-22.33 17.07-22.43 16.8-22.53 16.39-22.65 15.98-22.78 15.38-22.88 14.78-22.98 14-22.98L14-22.98Q11.18-22.98 9.36-21.23 7.55-19.48 6.43-16.18L6.43-16.18 6.43 0ZM71.44-25.28L71.44-25.28Q73.54-25.28 75.33-24.55 77.11-23.83 78.43-22.44 79.74-21.05 80.48-19.03 81.21-17 81.21-14.38L81.21-14.38Q81.21-13.83 81.05-13.63 80.89-13.43 80.54-13.43L80.54-13.43 62.56-13.43 62.56-12.95Q62.56-10.15 63.21-8.03 63.86-5.9 65.06-4.46 66.26-3.03 67.96-2.3 69.66-1.58 71.76-1.58L71.76-1.58Q73.64-1.58 75.01-1.99 76.39-2.4 77.33-2.91 78.26-3.43 78.81-3.84 79.36-4.25 79.61-4.25L79.61-4.25Q79.94-4.25 80.11-4L80.11-4 80.76-3.2Q80.16-2.45 79.18-1.8 78.19-1.15 76.98-0.69 75.76-0.23 74.38 0.05 72.99 0.33 71.59 0.33L71.59 0.33Q69.04 0.33 66.94-0.56 64.84-1.45 63.34-3.15 61.84-4.85 61.03-7.31 60.21-9.78 60.21-12.95L60.21-12.95Q60.21-15.63 60.98-17.89 61.74-20.15 63.18-21.79 64.61-23.43 66.7-24.35 68.79-25.28 71.44-25.28ZM71.46-23.5L71.46-23.5Q69.54-23.5 68.01-22.9 66.49-22.3 65.38-21.18 64.26-20.05 63.58-18.48 62.89-16.9 62.66-14.95L62.66-14.95 79.06-14.95Q79.06-16.95 78.51-18.54 77.96-20.13 76.96-21.23 75.96-22.33 74.56-22.91 73.16-23.5 71.46-23.5ZM132.58 0.4L132.58 0.4Q130.05 0.4 128.64-1 127.23-2.4 127.23-5.33L127.23-5.33 127.23-22.33 123.65-22.33Q123.38-22.33 123.2-22.48 123.03-22.63 123.03-22.9L123.03-22.9 123.03-23.83 127.28-24.13 127.88-33.02Q127.9-33.25 128.06-33.43 128.23-33.6 128.5-33.6L128.5-33.6 129.63-33.6 129.63-24.1 137.45-24.1 137.45-22.33 129.63-22.33 129.63-5.45Q129.63-4.42 129.89-3.69 130.15-2.95 130.61-2.48 131.08-2 131.7-1.78 132.33-1.55 133.05-1.55L133.05-1.55Q133.95-1.55 134.6-1.81 135.25-2.08 135.73-2.39 136.2-2.7 136.5-2.96 136.8-3.23 136.98-3.23L136.98-3.23Q137.18-3.23 137.38-2.98L137.38-2.98 138.03-1.93Q137.08-0.88 135.61-0.24 134.15 0.4 132.58 0.4ZM198.59 0L197.64 0Q196.89 0 196.71-0.7L196.71-0.7 196.36-3.88Q195.34-2.88 194.33-2.08 193.31-1.28 192.21-0.73 191.11-0.18 189.84 0.11 188.56 0.4 187.04 0.4L187.04 0.4Q185.76 0.4 184.56 0.03 183.36-0.35 182.44-1.13 181.51-1.9 180.95-3.11 180.39-4.33 180.39-6.03L180.39-6.03Q180.39-7.6 181.29-8.95 182.19-10.3 184.1-11.3 186.01-12.3 189.03-12.9 192.04-13.5 196.26-13.6L196.26-13.6 196.26-16.2Q196.26-19.65 194.78-21.51 193.29-23.38 190.36-23.38L190.36-23.38Q188.56-23.38 187.3-22.88 186.04-22.38 185.16-21.78 184.29-21.18 183.74-20.68 183.19-20.18 182.81-20.18L182.81-20.18Q182.31-20.18 182.06-20.63L182.06-20.63 181.64-21.35Q183.59-23.3 185.74-24.3 187.89-25.3 190.61-25.3L190.61-25.3Q192.61-25.3 194.11-24.66 195.61-24.03 196.6-22.84 197.59-21.65 198.09-19.96 198.59-18.28 198.59-16.2L198.59-16.2 198.59 0ZM187.64-1.33L187.64-1.33Q189.09-1.33 190.3-1.64 191.51-1.95 192.55-2.51 193.59-3.08 194.49-3.85 195.39-4.63 196.26-5.53L196.26-5.53 196.26-12Q192.71-11.9 190.15-11.46 187.59-11.03 185.93-10.28 184.26-9.53 183.48-8.49 182.69-7.45 182.69-6.13L182.69-6.13Q182.69-4.88 183.1-3.96 183.51-3.05 184.19-2.46 184.86-1.88 185.76-1.6 186.66-1.33 187.64-1.33ZM244.95-24.88L247.33-24.88 247.33 0 244.95 0 244.95-24.88ZM248.38-33.45L248.38-33.45Q248.38-33 248.19-32.61 248-32.23 247.7-31.93 247.4-31.63 247-31.45 246.6-31.28 246.15-31.28L246.15-31.28Q245.7-31.28 245.3-31.45 244.9-31.63 244.6-31.93 244.3-32.23 244.13-32.61 243.95-33 243.95-33.45L243.95-33.45Q243.95-33.9 244.13-34.31 244.3-34.73 244.6-35.02 244.9-35.33 245.3-35.5 245.7-35.68 246.15-35.68L246.15-35.68Q246.6-35.68 247-35.5 247.4-35.33 247.7-35.02 248-34.73 248.19-34.31 248.38-33.9 248.38-33.45ZM294.99-36.38L297.37-36.38 297.37 0 294.99 0 294.99-36.38Z" opacity="1" transform="matrix(1,0,0,1,0,0)" fill="#90ADBB" class="slogan-text-1" data-fill-palette-color="quaternary" id="text-1"></path></svg></g></svg></g></svg></g></svg></g><g></g></svg></g><defs></defs></svg>